<svg width="128" height="128" viewBox="0 0 128 128" fill="none" xmlns="http://www.w3.org/2000/svg">
<rect width="128" height="128" rx="32" fill="#FFD700"/>
<path d="M76.5899 51.2875C76.8398 51.5371 77.038 51.8335 77.1732 52.1597C77.3085 52.486 77.3781 52.8357 77.3781 53.1889C77.3781 53.5421 77.3085 53.8918 77.1732 54.218C77.038 54.5443 76.8398 54.8407 76.5899 55.0903L55.0899 76.5903C54.8402 76.84 54.5438 77.0381 54.2175 77.1732C53.8913 77.3083 53.5416 77.3779 53.1885 77.3779C52.8354 77.3779 52.4857 77.3083 52.1594 77.1732C51.8332 77.0381 51.5368 76.84 51.2871 76.5903C51.0374 76.3406 50.8393 76.0442 50.7042 75.7179C50.569 75.3917 50.4995 75.042 50.4995 74.6889C50.4995 74.3358 50.569 73.9861 50.7042 73.6599C50.8393 73.3336 51.0374 73.0372 51.2871 72.7875L72.7871 51.2875C73.0367 51.0376 73.3331 50.8394 73.6593 50.7041C73.9856 50.5689 74.3353 50.4993 74.6885 50.4993C75.0417 50.4993 75.3914 50.5689 75.7176 50.7041C76.0439 50.8394 76.3403 51.0376 76.5899 51.2875ZM93.3666 34.5108C91.6197 32.7637 89.5457 31.3778 87.2632 30.4322C84.9806 29.4867 82.5341 29 80.0635 29C77.5928 29 75.1464 29.4867 72.8638 30.4322C70.5812 31.3778 68.5073 32.7637 66.7604 34.5108L56.6621 44.6057C56.1578 45.11 55.8745 45.7939 55.8745 46.5071C55.8745 47.2203 56.1578 47.9042 56.6621 48.4085C57.1664 48.9128 57.8503 49.1961 58.5635 49.1961C59.2766 49.1961 59.9606 48.9128 60.4649 48.4085L70.5632 38.3304C73.0924 35.8567 76.4951 34.4803 80.0328 34.4997C83.5706 34.5192 86.9579 35.9331 89.4597 38.4344C91.9616 40.9358 93.376 44.3229 93.3961 47.8607C93.4162 51.3984 92.0404 54.8013 89.5671 57.331L79.4655 67.4293C78.9612 67.9331 78.6777 68.6166 78.6774 69.3295C78.6771 70.0423 78.96 70.7261 79.4638 71.2304C79.9677 71.7347 80.6512 72.0182 81.364 72.0185C82.0769 72.0188 82.7607 71.7359 83.265 71.2321L93.3666 61.117C95.1137 59.3701 96.4996 57.2961 97.4451 55.0136C98.3907 52.731 98.8773 50.2845 98.8773 47.8139C98.8773 45.3432 98.3907 42.8968 97.4451 40.6142C96.4996 38.3317 95.1137 36.2577 93.3666 34.5108ZM67.4121 79.4659L57.3138 89.5642C56.0711 90.8348 54.5887 91.8463 52.9524 92.54C51.3161 93.2338 49.5584 93.596 47.7811 93.6058C46.0039 93.6156 44.2423 93.2727 42.5985 92.597C40.9546 91.9214 39.4612 90.9263 38.2046 89.6694C36.9479 88.4126 35.9531 86.9189 35.2777 85.275C34.6023 83.631 34.2598 81.8694 34.2699 80.0922C34.28 78.3149 34.6425 76.5573 35.3366 74.9211C36.0306 73.2849 37.0423 71.8027 38.3132 70.5602L48.4081 60.4653C48.9124 59.961 49.1957 59.2771 49.1957 58.5639C49.1957 57.8507 48.9124 57.1668 48.4081 56.6625C47.9038 56.1582 47.2199 55.8749 46.5067 55.8749C45.7935 55.8749 45.1096 56.1582 44.6053 56.6625L34.5104 66.7608C30.9822 70.289 29 75.0742 29 80.0639C29 85.0535 30.9822 89.8388 34.5104 93.367C38.0386 96.8952 42.8238 98.8773 47.8135 98.8773C52.8031 98.8773 57.5884 96.8952 61.1166 93.367L71.2149 83.2654C71.7187 82.7611 72.0016 82.0773 72.0013 81.3645C72.001 80.6516 71.7175 79.9681 71.2132 79.4642C70.7089 78.9604 70.0251 78.6775 69.3123 78.6778C68.5994 78.6782 67.9159 78.9616 67.4121 79.4659Z" fill="black"/>
</svg>
